<svg id="visual" viewBox="0 0 900 600" width="900" height="600" xmlns="http://www.w3.org/2000/svg" xmlns:xlink="http://www.w3.org/1999/xlink" version="1.1"><path d="M0 359L12.5 365.7C25 372.3 50 385.7 75 390.8C100 396 125 393 150 388.5C175 384 200 378 225 385.5C250 393 275 414 300 423.7C325 433.3 350 431.7 375 422.3C400 413 425 396 450 391.2C475 386.3 500 393.7 525 393.5C550 393.3 575 385.7 600 380.8C625 376 650 374 675 381.8C700 389.7 725 407.3 750 405.3C775 403.3 800 381.7 825 377C850 372.3 875 384.7 887.5 390.8L900 397L900 601L887.5 601C875 601 850 601 825 601C800 601 775 601 750 601C725 601 700 601 675 601C650 601 625 601 600 601C575 601 550 601 525 601C500 601 475 601 450 601C425 601 400 601 375 601C350 601 325 601 300 601C275 601 250 601 225 601C200 601 175 601 150 601C125 601 100 601 75 601C50 601 25 601 12.5 601L0 601Z" fill="#fa7268"></path><path d="M0 427L12.5 427.2C25 427.3 50 427.7 75 423C100 418.3 125 408.7 150 402.8C175 397 200 395 225 398C250 401 275 409 300 416.2C325 423.3 350 429.7 375 429.2C400 428.7 425 421.3 450 413.5C475 405.7 500 397.3 525 402.2C550 407 575 425 600 435.2C625 445.3 650 447.7 675 438.5C700 429.3 725 408.7 750 399.2C775 389.7 800 391.3 825 402.5C850 413.7 875 434.3 887.5 444.7L900 455L900 601L887.5 601C875 601 850 601 825 601C800 601 775 601 750 601C725 601 700 601 675 601C650 601 625 601 600 601C575 601 550 601 525 601C500 601 475 601 450 601C425 601 400 601 375 601C350 601 325 601 300 601C275 601 250 601 225 601C200 601 175 601 150 601C125 601 100 601 75 601C50 601 25 601 12.5 601L0 601Z" fill="#e46163"></path><path d="M0 458L12.5 450.8C25 443.7 50 429.3 75 428.8C100 428.3 125 441.7 150 441.5C175 441.3 200 427.7 225 425.8C250 424 275 434 300 434.7C325 435.3 350 426.7 375 426.5C400 426.3 425 434.7 450 439.7C475 444.7 500 446.3 525 442.3C550 438.3 575 428.7 600 434.5C625 440.3 650 461.7 675 471.3C700 481 725 479 750 473.8C775 468.7 800 460.3 825 452.8C850 445.3 875 438.7 887.5 435.3L900 432L900 601L887.5 601C875 601 850 601 825 601C800 601 775 601 750 601C725 601 700 601 675 601C650 601 625 601 600 601C575 601 550 601 525 601C500 601 475 601 450 601C425 601 400 601 375 601C350 601 325 601 300 601C275 601 250 601 225 601C200 601 175 601 150 601C125 601 100 601 75 601C50 601 25 601 12.5 601L0 601Z" fill="#ce515d"></path><path d="M0 470L12.5 473.7C25 477.3 50 484.7 75 487.5C100 490.3 125 488.7 150 490.2C175 491.7 200 496.3 225 496.3C250 496.3 275 491.7 300 492.8C325 494 350 501 375 496.3C400 491.7 425 475.3 450 473.2C475 471 500 483 525 481.7C550 480.3 575 465.7 600 459.8C625 454 650 457 675 461.5C700 466 725 472 750 475.3C775 478.7 800 479.3 825 476.2C850 473 875 466 887.5 462.5L900 459L900 601L887.5 601C875 601 850 601 825 601C800 601 775 601 750 601C725 601 700 601 675 601C650 601 625 601 600 601C575 601 550 601 525 601C500 601 475 601 450 601C425 601 400 601 375 601C350 601 325 601 300 601C275 601 250 601 225 601C200 601 175 601 150 601C125 601 100 601 75 601C50 601 25 601 12.5 601L0 601Z" fill="#b84257"></path><path d="M0 519L12.5 516C25 513 50 507 75 505.3C100 503.7 125 506.3 150 508.2C175 510 200 511 225 512.5C250 514 275 516 300 514.3C325 512.7 350 507.3 375 505.5C400 503.7 425 505.3 450 508.7C475 512 500 517 525 521C550 525 575 528 600 523.2C625 518.3 650 505.7 675 500.3C700 495 725 497 750 494.5C775 492 800 485 825 483.2C850 481.3 875 484.7 887.5 486.3L900 488L900 601L887.5 601C875 601 850 601 825 601C800 601 775 601 750 601C725 601 700 601 675 601C650 601 625 601 600 601C575 601 550 601 525 601C500 601 475 601 450 601C425 601 400 601 375 601C350 601 325 601 300 601C275 601 250 601 225 601C200 601 175 601 150 601C125 601 100 601 75 601C50 601 25 601 12.5 601L0 601Z" fill="#a13450"></path><path d="M0 525L12.5 528.2C25 531.3 50 537.7 75 536C100 534.3 125 524.7 150 522.7C175 520.7 200 526.3 225 532.5C250 538.7 275 545.3 300 542.5C325 539.7 350 527.3 375 527.8C400 528.3 425 541.7 450 545C475 548.3 500 541.7 525 539.2C550 536.7 575 538.3 600 534.7C625 531 650 522 675 522.5C700 523 725 533 750 539.7C775 546.3 800 549.7 825 545.7C850 541.7 875 530.3 887.5 524.7L900 519L900 601L887.5 601C875 601 850 601 825 601C800 601 775 601 750 601C725 601 700 601 675 601C650 601 625 601 600 601C575 601 550 601 525 601C500 601 475 601 450 601C425 601 400 601 375 601C350 601 325 601 300 601C275 601 250 601 225 601C200 601 175 601 150 601C125 601 100 601 75 601C50 601 25 601 12.5 601L0 601Z" fill="#8a2648"></path><path d="M0 546L12.5 550C25 554 50 562 75 562.7C100 563.3 125 556.7 150 557.5C175 558.3 200 566.7 225 566.7C250 566.7 275 558.3 300 554.5C325 550.7 350 551.3 375 553C400 554.7 425 557.3 450 557.8C475 558.3 500 556.7 525 556.2C550 555.7 575 556.3 600 557.2C625 558 650 559 675 559.7C700 560.3 725 560.7 750 563.3C775 566 800 571 825 572.8C850 574.7 875 573.3 887.5 572.7L900 572L900 601L887.5 601C875 601 850 601 825 601C800 601 775 601 750 601C725 601 700 601 675 601C650 601 625 601 600 601C575 601 550 601 525 601C500 601 475 601 450 601C425 601 400 601 375 601C350 601 325 601 300 601C275 601 250 601 225 601C200 601 175 601 150 601C125 601 100 601 75 601C50 601 25 601 12.5 601L0 601Z" fill="#74193f"></path></svg>